<svg xmlns="http://www.w3.org/2000/svg" width="24" height="96" viewBox="0 0 24 96"><rect width="24" height="96" rx="0" fill="#2A2A2E"/><defs><clipPath id="c1d96"><rect width="6" height="96"/></clipPath></defs><g clip-path="url(#c1d96)" opacity="0.34"><path d="M0 -5.657L6 -11.657M0 0L6 -6M0 5.657L6 -0.343M0 11.314L6 5.314M0 16.971L6 10.971M0 22.627L6 16.627M0 28.284L6 22.284M0 33.941L6 27.941M0 39.598L6 33.598M0 45.255L6 39.255M0 50.912L6 44.912M0 56.569L6 50.569M0 62.225L6 56.225M0 67.882L6 61.882M0 73.539L6 67.539M0 79.196L6 73.196M0 84.853L6 78.853M0 90.51L6 84.51M0 96.167L6 90.167M0 101.823L6 95.823M0 107.48L6 101.48M0 113.137L6 107.137" fill="none" stroke="#FFFFFF" stroke-width="1.5" stroke-linejoin="miter" stroke-linecap="butt"/></g></svg>
